<svg xmlns="http://www.w3.org/2000/svg" width="312" height="286.6" viewBox="0 0 312 286.6"><title>tool-baby</title><path d="M187.47 222.49c-4.88 3.26-7.44 11.36-8.42 16.85s-1.29 14.24 3.35 18.21c.79.68 2.4.31 2.29-.95-.25-2.68-1.54-5.19-2-7.87A27 27 0 0 1 183 239a54.08 54.08 0 0 1 2.5-8.34c.94-2.51 2.33-5.1 2.53-7.79a.39.39 0 0 0-.58-.33zM209.09 221.79c.73 3.05 1.76 5.85 1.87 9a30.41 30.41 0 0 1-1.54 10c-1.83 6-4.45 12.12-8.87 16.7-1.84 1.92 1.07 4.84 2.92 2.92a40.88 40.88 0 0 0 9.87-19.73c1.11-5.73 2.54-15.9-3.58-19.49a.46.46 0 0 0-.66.51z"/><path d="M181.87 254.64c-2.85-.56-6.29 1.88-8.43 3.53a17.71 17.71 0 0 0-6 8 11.89 11.89 0 0 0 6.47 14.73c5.11 2.15 11 .46 15.67-2.12 3.79-2.12 10.42-6.55 9.26-11.64a.85.85 0 0 0-1.23-.5c-3.28 1.93-5.2 5.44-8.45 7.57-3.43 2.25-7.88 4.17-12.06 3.37a7.83 7.83 0 0 1-5.57-10.78 18.39 18.39 0 0 1 5.14-6.41c1.76-1.52 4.38-2.62 5.7-4.53a.81.81 0 0 0-.48-1.18z"/><path d="M202.81 260.59c2.82.07 6.44.26 7.56 3.25.75 2 .71 3.82-1.11 5.17a9.93 9.93 0 0 1-5.64 1.61c-2.28 0-3.87-1-6-1.39-1.44-.28-3.09 1.28-2.09 2.72 1.85 2.65 6.25 3 9.2 2.74 3.31-.29 6.93-1.5 8.92-4.33s1.53-7.21-.47-10.09c-2.62-3.77-7.25-3.82-11-1.88a1.19 1.19 0 0 0 .59 2.19zM239.72 208.63c-1.28 2.19-1.22 5-1.68 7.46a57.69 57.69 0 0 1-1.92 7.29 43.25 43.25 0 0 1-5.9 11.83 32 32 0 0 1-10.68 9.09c-4.15 2.23-8.84 3-12.85 5.46a.67.67 0 0 0 .16 1.21c5 1.53 10-.6 14.41-2.91a36 36 0 0 0 11.79-9.79 46.08 46.08 0 0 0 6.63-12.57 49.89 49.89 0 0 0 2.32-9c.42-2.63 1-5.61-.36-8a1.12 1.12 0 0 0-1.92 0zM190.29 190.21c-5.77.1-10.68 5.15-13.53 9.69a46.18 46.18 0 0 0-4.66 34.57c1.2 4 3.41 9 8.11 9.44 1.13.1 1.4-1.3.83-2a25.62 25.62 0 0 1-5.23-9.47 39.49 39.49 0 0 1-.75-14.86 38.59 38.59 0 0 1 5-15.1c2.78-4.62 6.6-7.24 10.76-10.42a1 1 0 0 0-.5-1.83zM253.48 250.63c1-4.07 2.18-7.76 2.41-12a59.21 59.21 0 0 0-.53-11.73 51 51 0 0 0-3.11-11.68c-1.17-2.92-2.54-7.89-5.81-8.89a1.59 1.59 0 0 0-1.94 1.1c-.37 1.81.2 2.65 1.05 4.24a50.47 50.47 0 0 1 5.45 16 59.23 59.23 0 0 1 .68 11c-.09 3.87.13 7.88-.24 11.72-.11 1.19 1.78 1.41 2.06.28z"/><path d="M238.15 251.87c-1.26-2-3.26-3.43-4.5-5.51s-1.39-5-3.1-6.57a1.15 1.15 0 0 0-1.6 0c-2.38 2.35-.2 6.7 1.37 8.91s4.43 5.25 7.36 4.31a.78.78 0 0 0 .46-1.14z"/><path d="M235.2 250.48c-5-.38-9.8 2.51-10.73 7.59-.8 4.34 1.55 9 6 10a11.94 11.94 0 0 0 7.89-1.25 9.92 9.92 0 0 0 4.15-3c.81-1.24.57-2.93-1.17-3s-3.25 1.53-4.64 2.24a9.44 9.44 0 0 1-3.85 1.14 4 4 0 0 1-3.91-2.13 5.85 5.85 0 0 1 .13-5.26c1.27-2.5 3.82-3.54 6.43-4.1 1.33-.28.92-2.16-.3-2.25z"/><path d="M239.5 261.31c1.53 3.32 6.15 5.1 9.34 6.36a21.88 21.88 0 0 0 11.53 1.41c4.85-.78 11.28-2.67 12.84-8 1.25-4.3-1.6-8.37-4.86-10.86a22.63 22.63 0 0 0-7.49-3.67c-2.4-.69-7.13-2.06-9 .29a1 1 0 0 0-.15 1.15c1.37 1.79 3.81 1.62 5.87 2a21.22 21.22 0 0 1 6.67 2.41c2.37 1.38 5.8 4.18 5 7.35-1 4.13-8 5.28-11.38 5.46a20.87 20.87 0 0 1-9.66-2.19c-2.51-1.15-5.26-3.08-8.12-2.79a.74.74 0 0 0-.63 1.09zM2.75 91.39c5.5 1.39 11.68 1.09 17.32 1.07 6.1 0 12.2-.11 18.3-.16 11.82-.11 23.63-.3 35.47-.49l72.08-1c2.59 0 2.6-4.07 0-4l-72.08.99c-11.82.17-23.65.3-35.47.54-6.1.12-12.2.22-18.3.37-5.64.14-11.85 0-17.32 1.57a.59.59 0 0 0 0 1.12z"/><path d="M144.91 87.43c-.52 5.38.07 10.63.52 16s.9 10.67 1.38 16l2.88 32.57q2.86 32.3 5.85 64.58l1.63 17.72c.28 3 .56 6.1.87 9.14s.38 6.11 1.46 8.91c.4 1.05 2.2 1.36 2.46 0 .92-4.86-.17-10.3-.6-15.2l-1.46-16.55-2.84-32.6c-1.88-21.53-3.89-43.06-5.84-64.58-.55-6.1-1.1-12.19-1.69-18.29s-.89-12.12-2.56-18a1.05 1.05 0 0 0-2.06.28zM94.09 120.16c-.52 5.38.07 10.63.52 16s.9 10.67 1.38 16l2.88 32.58q2.86 32.3 5.85 64.58l1.62 17.68c.28 3 .56 6.1.87 9.14s.38 6.11 1.46 8.91c.4 1.05 2.2 1.36 2.46 0 .92-4.86-.17-10.3-.6-15.2l-1.45-16.57-2.84-32.58c-1.88-21.53-3.89-43.06-5.84-64.58-.55-6.1-1.1-12.19-1.69-18.29s-.89-12.12-2.56-18a1.05 1.05 0 0 0-2.06.28zM1.34 90.88c-.52 5.38.07 10.63.52 16s.9 10.67 1.38 16l2.88 32.58Q9 187.76 12 220l1.63 17.72c.28 3 .56 6.1.87 9.14s.38 6.11 1.46 8.91c.4 1.05 2.2 1.36 2.46 0 .92-4.86-.17-10.3-.6-15.2L16.33 224l-2.84-32.58c-1.88-21.53-3.89-43.06-5.84-64.58-.55-6.1-1.1-12.19-1.69-18.29s-.89-12.12-2.56-18a1.05 1.05 0 0 0-2.06.28z"/><path d="M92.31 121.4c1.46 1.11 3.11 0 4.59-.7 2.59-1.2 5-2.71 7.54-4.1 4.66-2.6 9.33-5.18 14-7.81l13.93-7.89c2.32-1.31 4.65-2.62 6.94-4 2.56-1.53 4.59-3.76 7.34-4.83a1.45 1.45 0 1 0-1.43-2.45c-2.36 1.82-5.29 2.39-7.94 3.81s-5.33 3-8 4.46l-14.93 8.45c-5 2.82-9.92 5.7-14.87 8.55-.79.46-9.37 4.82-7.16 6.5zM108.43 286.58c9.64-3.12 18.28-9.44 26.92-14.67 9-5.46 18.28-10.64 26.87-16.75a1.7 1.7 0 0 0-1.71-2.93c-9.35 4.87-18.18 10.75-27.15 16.28-8.6 5.31-18.19 10.14-25.37 17.31a.46.46 0 0 0 .44.75zM17.83 259.56c7.55.64 15.26.26 22.83.29s15.22 0 22.83-.06l22.26-.08c7.46 0 15.33.64 22.71-.6 1.63-.27 1.64-3 0-3.3-7.2-1.15-14.86-.45-22.14-.41l-22.83.11c-7.42 0-14.84 0-22.26.12-7.76.09-15.67-.23-23.4.48a1.73 1.73 0 0 0 0 3.46zM.8 91.77c3.88.53 7.8-1.34 11.5-2.41q6.43-1.86 12.89-3.61c8.62-2.35 17.24-4.64 25.92-6.75s17.38-4.06 26.13-5.88c4.19-.87 8.39-1.68 12.58-2.51s9.06-1.06 12.74-3.2a1.39 1.39 0 0 0-.33-2.51c-3.9-.71-8.07.57-11.91 1.26-4.39.79-8.77 1.68-13.14 2.59q-13.38 2.78-26.66 6c-8.67 2.11-17.33 4.32-25.9 6.79q-6.44 1.85-12.84 3.8C8 86.51 3.28 87.16.31 89.91a1.12 1.12 0 0 0 .49 1.86z"/><path d="M101.35 30.91c-1.46-.88-1 .51-.61 1.19a24.33 24.33 0 0 0 2.5 3.17c2.1 2.57 4.28 5.09 6.37 7.67 4.18 5.14 8.39 10.23 12.39 15.52q11.69 15.46 21.8 32c1.39 2.26 4.93.21 3.57-2.08a324.31 324.31 0 0 0-23.34-34.12c-4.18-5.36-8.48-10.64-13.09-15.64a104 104 0 0 0-7.28-7.5c-1-.91-1.81-2.35-3.31-1.54a.82.82 0 0 0-.42.72 1.44 1.44 0 0 0 1 1.45c.51.2.8-.59.36-.86z"/><path d="M100.16 30.25l.24.29a1.33 1.33 0 0 0 1.3.34c6.84-1.54 13.46-5.08 20-7.56 6.86-2.6 13.76-5.1 20.75-7.37a409.67 409.67 0 0 1 42-11.16c2.64-.56 1.52-4.59-1.12-4a396.52 396.52 0 0 0-42.54 11.32c-6.8 2.22-13.57 4.59-20.23 7.22s-14.15 5-19.93 9.16a1.41 1.41 0 0 0-.61 1.51.49.49 0 0 0 .1.29z"/><path d="M184 2.38c7 9.33 13.93 18.54 20.23 28.36 3.21 5 6.33 10.06 9.41 15.14 2.62 4.31 5.06 10.21 9.31 13a1.33 1.33 0 0 0 2-1.14c-.59-5.1-4.6-9.92-7.28-14.24-3.22-5.18-6.47-10.35-9.82-15.45-6.3-9.52-12.79-19.89-21.29-27.64-1.29-1.17-3.72.42-2.56 2z"/><path d="M146.43 90.22c9.74-3.09 19.19-7.31 28.69-11 12.12-4.74 24.23-9.49 36.28-14.42 2.59-1.06 5.32-2 7.82-3.25 1.58-.8 3.78-1.85 4.91-3.23a.75.75 0 0 0-.53-1.32c-3.74-.43-8.31 2-11.7 3.28q-8.43 3.21-16.83 6.49c-12.17 4.72-24.28 9.56-36.41 14.39-4.56 1.84-9.21 3.57-13.66 5.76-1.83.91-.55 3.92 1.39 3.3zM100.23 68.17c5.48.27 11 0 16.49-.12 2.65-.05 5.32-.13 8-.37 1.89-.17 3.57-.12 4.68-1.8a.78.78 0 0 0 0-.81c-1.09-1.46-2.37-1.45-4.11-1.55-2.84-.16-5.69-.08-8.53 0-5.49.18-11 .19-16.49.75a2 2 0 0 0 0 3.9zM271.77 72c-1-2.65-4.89-4.2-7.36-5.17A34.61 34.61 0 0 0 254 64.54c-7.08-.48-14.08 1.06-19.68 5.47-.94.74.26 2 1.19 1.55a39.28 39.28 0 0 1 28-1.59c2.42.76 5.19 2.68 7.71 2.7a.55.55 0 0 0 .53-.69z"/><path d="M269.26 69.83c-1.72-1.72-4.64-1.65-6.89-1.42a40.43 40.43 0 0 0-10.92 2.71c-7.25 2.89-12.93 7.51-18.35 13-.68.69.33 1.66 1 1a74.22 74.22 0 0 1 16.74-10.6 43.74 43.74 0 0 1 9.32-3.05c2.58-.53 5.69-1.34 8.25-.33.8.31 1.34-.83.8-1.38z"/><path d="M267.59 70.53c-2.24-2-5.69-1.13-8.16 0-3.78 1.75-6.87 4.93-9.55 8.06a56.71 56.71 0 0 0-11.29 20.9c-.29 1 1.12 1.3 1.49.41a47.33 47.33 0 0 1 4.38-7.53c2.22-3.37 4.37-6.78 6.85-10a43.7 43.7 0 0 1 7.77-8.16 15.34 15.34 0 0 1 8.26-3.11c.28 0 .5-.38.25-.61z"/><path d="M269.46 69.56c-5.2-.08-9.22 5.4-11.43 9.45-2.62 4.8-4.62 10.55-4.63 16.06a1.07 1.07 0 0 0 2.09.28c1.8-4.52 2.8-9.31 4.78-13.78a25.4 25.4 0 0 1 9.45-11.05.52.52 0 0 0-.26-1zM180 155.34a23.46 23.46 0 0 1-6.56-9 28.61 28.61 0 0 1-1.93-12.75 21.17 21.17 0 0 1 11.92-18.35c.88-.46.34-1.58-.46-1.68-2.42-.31-4.09-.31-6.32 1.09a17.09 17.09 0 0 0-4.72 4.61 27.37 27.37 0 0 0-4.6 13.74 32.39 32.39 0 0 0 2.28 15c2 4.67 4.69 7.86 9.43 9.54 1.37.48 1.87-1.41.91-2.15z"/><path d="M178.8 155.5v.13a1.55 1.55 0 0 0 .4 1.52c6.73 5.68 14.1-9.3 15.45-14.09a30.93 30.93 0 0 0-.29-17.49 24 24 0 0 0-3.94-7.41c-1.67-2.11-4.24-5.37-7.22-5.07a1.12 1.12 0 0 0-1.06 1.39c.49 2.32 2.78 3.62 4.22 5.37a22 22 0 0 1 3.94 7.26 26.72 26.72 0 0 1 .13 15.16 28.3 28.3 0 0 1-5 9.28c-1 1.21-2.22 2.66-3.82 2.95-1 .17-2.45-.31-2.81 1zM230.47 179.41c-.18-8.32 4.22-15.94 10.73-20.89a24 24 0 0 1 10.8-4.86c3.79-.56 7.43.75 11 1.77a.91.91 0 0 0 1-1.33c-5-9.18-18.92-3.71-25.15 1-7.24 5.51-14.61 15.58-10.55 24.88.48 1.1 2.22.51 2.19-.59z"/><path d="M229.28 178.64c-1.42 1.18-.45 3.43.65 4.46 1.52 1.42 3.76 1.79 5.76 1.87a30.07 30.07 0 0 0 26.5-14.25 23.41 23.41 0 0 0 3.18-8.23c.46-2.65 1.27-6.72-1-8.71a1.11 1.11 0 0 0-1.55 0c-1.46 1.85-1 4.08-1.33 6.3a22.29 22.29 0 0 1-2.31 7.16 27.12 27.12 0 0 1-10.78 10.58 26.15 26.15 0 0 1-10.07 2.88 11.58 11.58 0 0 1-5.14-.26c-1.18-.46-1.69-1.64-2.83-2.09a1.12 1.12 0 0 0-1.08.29z"/><path d="M273.55 201.11c14.73-6.54 25.14-20.91 31.32-35.37s9.07-31 5.72-46.56c-5.44-25.3-25.74-45.59-49.25-55.07-24.26-9.78-52.52-7.56-73.48 8.68-27.6 21.39-42.66 64.47-23.29 95.82 9.24 15 24.27 25.55 39.89 33 17.44 8.35 37.72 11.49 56.51 6a43.58 43.58 0 0 0 12.73-6.27 1.18 1.18 0 0 0-1.19-2c-17.83 7.53-36.83 9-55.35 3-15.69-5.08-31.28-14.61-42.33-26.92-12.48-13.91-17.26-32.21-13.81-50.56A83.59 83.59 0 0 1 184.64 81c18.07-17.48 44-22.61 67.82-15.63 22.72 6.64 43 23.54 51.47 45.94 10.57 28-1.37 61.27-22.44 81.16a81.57 81.57 0 0 1-8.81 7.12.87.87 0 0 0 .87 1.52z"/><path d="M186.2 171.46a22 22 0 0 0 10.94 13.64c3.92 1.92 12.28 3.14 14.47-2 .26-.6 0-1.53-.84-1.46-2.09.18-4 1.18-6.14 1.32a13.14 13.14 0 0 1-7.21-1.72c-4.4-2.46-6.69-6.88-9.66-10.72-.6-.78-1.78.08-1.56.91zM190 145.36a4.75 4.75 0 0 0 2-6.91c-1.73-2.86-5.62-3.26-8.36-1.73-5.4 3-7.27 14.24-1.12 17.5 6.65 3.52 12.54-7.2 10-12.57a5.59 5.59 0 0 0-8.77-1.59 7.32 7.32 0 0 0-.35 10.59c1.85 1.81 4.54.35 4.76-2 .07-.76.22-2.82-.2-3.51 0 0-1.07-.73-1.26-.61s0 .24-.1.36c-.49.51-.63 2.12-1.07 2.81-.13.21-.62.65-.68.87.1-.37.54.22.6-.16.08-.6-.38-1.68-.35-2.37a7.19 7.19 0 0 1 .67-3.06c.7-1.28 2.59-2 2 .13-.31 1.21.89 2.76 2.23 2.23zM250.11 178.49c4.58-2.92 5.54-10.19 1.11-13.73-4.61-3.68-9.67 0-11.29 4.73-1.46 4.22-1.27 11.11 4.22 12.13a6.76 6.76 0 0 0 6.58-3c1.93-2.81 1.45-6.24.79-9.39a3.21 3.21 0 0 0-3.92-2.23c-1.95.57-3.4 1.14-4.1 3.17a6.89 6.89 0 0 0 0 4.28 7.08 7.08 0 0 0 6.61 5.08c1.21 0 2.8-.93 3-2.27a3.74 3.74 0 0 0 0-1.65 3.08 3.08 0 0 0-2.16-2.16c-.82-.18-1.67-.64-1.31-1.29l-1.91 1.47 1.6-.49-3.91-2.22c.24 1.07.78 2.63.36 3.73a1.38 1.38 0 0 1-.68.88.47.47 0 0 1 .36.11c-.81-1.26 0-4.12.61-5.3.81-1.57 1.89-1.31 2.47.38.76 2.21-.29 4.79 0 7.1a1.07 1.07 0 0 0 1.56.64zM159.46 245.12c3.3 2.51 8 3.42 12.11 3.63 3.15.16 9.13.4 10.84-2.79a1.52 1.52 0 0 0-.54-2.05c-1.45-.79-2.62-.52-4.19-.23a26.57 26.57 0 0 1-5.63.44c-4-.12-7.33-1.5-11.1-2.53-2.26-.62-3.15 2.28-1.49 3.54z"/><path d="M160.53 255.32c2.74-.32 5.25-1.66 7.75-2.76 2.28-1 5.79-1.8 6.84-4.24a1.28 1.28 0 0 0-.75-1.85c-2.43-.73-5 1.14-7.13 2.2-2.6 1.29-5.51 2.39-7.64 4.42-.76.72-.23 2.37.92 2.23z"/><path d="M161.77 255.09c2.8 1.08 6 1.22 8.81 2.25 2.37.86 4.72 2.67 7.33 2.08a1 1 0 0 0 .71-1.25c-.68-3-4.32-4.1-6.9-5-3-1-6.81-1.9-9.95-.92a1.47 1.47 0 0 0 0 2.8zM212 266.68c.43 1.91 1.93 2.4 3.65 3.06a22.47 22.47 0 0 0 5.49 1.58c2.13.25 2.79-3 1.06-3.92a22.17 22.17 0 0 0-5.4-1.84c-1.79-.44-3.2-.8-4.63.48a.65.65 0 0 0-.17.63z"/><path d="M222.33 270.58a17.16 17.16 0 0 0 4.37-1.85c1.32-.76 3-1.37 3.64-2.82a1.78 1.78 0 0 0-1.51-2.64c-1.62-.11-2.92 1-4.24 1.84a17.17 17.17 0 0 0-3.71 3 1.51 1.51 0 0 0 1.45 2.5zM250.48 223.54c2.35 1.22 5 1.48 7.61 1.93 3 .53 6 1.09 9 1.64 5.8 1.07 11.59 2.12 17.43 3 2.75.41 3.92-3.8 1.16-4.2-6-.87-12-1.89-18-2.85-3-.48-6-1-9-1.43-2.61-.4-5.24-1-7.87-.47a1.32 1.32 0 0 0-.31 2.39z"/><path d="M256.7 248.12c5.44-2.21 10.2-5.6 15.13-8.76a167.83 167.83 0 0 0 14.65-10c1.8-1.45-.5-4.1-2.39-3.09a167.82 167.82 0 0 0-14.93 9.63c-4.7 3.2-9.58 6.16-13.63 10.19-.79.78 0 2.46 1.16 2zM154.88 189.82a38.62 38.62 0 0 0 6.69-1.45 40.34 40.34 0 0 1 8.09-1.15 38.07 38.07 0 0 1 7.7.52c2.15.38 4.75 1.75 6.89.95a1.36 1.36 0 0 0 .8-2c-1.22-2.18-4.33-2.56-6.59-3a39.76 39.76 0 0 0-8.8-.66c-4.93.21-12.14 1-15.43 5.16-.45.57-.23 1.61.65 1.57zM223.51 59.25c2.16.31 3.86-.91 5.69-2 2.76-1.62 5.46-3.36 8.17-5.07 2.55-1.61 5.12-3.2 7.66-4.82 1.82-1.16 4-2.08 4.18-4.42a.89.89 0 0 0-.64-.84c-2.23-.84-4.16 1.07-6 2.25-2.53 1.65-5 3.33-7.56 5s-5.07 3.29-7.53 5c-1.71 1.22-3.67 2.29-4.26 4.4a.36.36 0 0 0 .25.44z"/><path d="M248.12 42.56c-2.31 2.07-1.07 7.41-1 10.21.08 2.56-.74 7.79 1.93 9.2a.88.88 0 0 0 .88 0c2.74-1.74 1.35-7 1.2-9.76-.16-3 .65-7.8-1.93-9.79a.91.91 0 0 0-1.09.14z"/></svg>