<svg width="244" height="27" viewBox="0 0 244 27" fill="none" xmlns="http://www.w3.org/2000/svg">
<line y1="12.5" x2="243" y2="12.5" stroke="black"/>
<line x1="17.5" y1="8" x2="17.5" y2="18" stroke="black"/>
<line x1="33.5" y1="8" x2="33.5" y2="18" stroke="black"/>
<line x1="49.5" y1="8" x2="49.5" y2="18" stroke="black"/>
<line x1="65.5" y1="8" x2="65.5" y2="18" stroke="black"/>
<line x1="81.5" y1="8" x2="81.5" y2="18" stroke="black"/>
<line x1="97.5" y1="8" x2="97.5" y2="18" stroke="black"/>
<line x1="113.5" y1="8" x2="113.5" y2="18" stroke="black"/>
<line x1="129.5" y1="8" x2="129.5" y2="18" stroke="black"/>
<line x1="145.5" y1="8" x2="145.5" y2="18" stroke="black"/>
<line x1="161.5" y1="8" x2="161.5" y2="18" stroke="black"/>
<line x1="177.5" y1="8" x2="177.5" y2="18" stroke="black"/>
<line x1="193.5" y1="8" x2="193.5" y2="18" stroke="black"/>
<line x1="209.5" y1="8" x2="209.5" y2="18" stroke="black"/>
<line x1="225.5" y1="8" x2="225.5" y2="18" stroke="black"/>
<line x1="243.5" y1="1" x2="243.5" y2="27" stroke="black"/>
<line x1="0.5" x2="0.5" y2="26" stroke="black"/>
</svg>
